<mxfile host="app.diagrams.net" modified="2022-11-27T13:14:26.620Z" agent="5.0 (Macintosh; Intel Mac OS X 10_15_7) AppleWebKit/537.36 (KHTML, like Gecko) Chrome/107.0.0.0 Safari/537.36" etag="SKfI2wEDR5uwgnJsWYlq" version="20.6.0" type="github" pages="6">
  <diagram id="zgdJRmDadTKd85lx_OF3" name="业务图">
    <mxGraphModel dx="1186" dy="714" grid="1" gridSize="10" guides="1" tooltips="1" connect="1" arrows="1" fold="1" page="1" pageScale="1" pageWidth="827" pageHeight="1169" math="0" shadow="0">
      <root>
        <mxCell id="0" />
        <mxCell id="1" parent="0" />
        <mxCell id="xtoXwIOmK_JS2XSk1O71-1" value="" style="rounded=0;whiteSpace=wrap;html=1;fillColor=#f5f5f5;fontColor=#333333;strokeColor=#666666;" parent="1" vertex="1">
          <mxGeometry x="150" y="90" width="500" height="70" as="geometry" />
        </mxCell>
        <mxCell id="xtoXwIOmK_JS2XSk1O71-2" value="PC" style="rounded=1;whiteSpace=wrap;html=1;fillColor=#f8cecc;strokeColor=#b85450;" parent="1" vertex="1">
          <mxGeometry x="170" y="100" width="80" height="50" as="geometry" />
        </mxCell>
        <mxCell id="xtoXwIOmK_JS2XSk1O71-3" value="小程序" style="rounded=1;whiteSpace=wrap;html=1;fillColor=#f8cecc;strokeColor=#b85450;" parent="1" vertex="1">
          <mxGeometry x="520" y="100" width="80" height="50" as="geometry" />
        </mxCell>
        <mxCell id="xtoXwIOmK_JS2XSk1O71-4" value="H5" style="rounded=1;whiteSpace=wrap;html=1;fillColor=#f8cecc;strokeColor=#b85450;" parent="1" vertex="1">
          <mxGeometry x="355" y="100" width="80" height="50" as="geometry" />
        </mxCell>
        <mxCell id="xtoXwIOmK_JS2XSk1O71-6" value="" style="rounded=0;whiteSpace=wrap;html=1;fillColor=#dae8fc;strokeColor=#6c8ebf;" parent="1" vertex="1">
          <mxGeometry x="150" y="190" width="500" height="280" as="geometry" />
        </mxCell>
        <mxCell id="xtoXwIOmK_JS2XSk1O71-7" value="用户服务" style="rounded=1;whiteSpace=wrap;html=1;fillColor=#d5e8d4;strokeColor=#82b366;" parent="1" vertex="1">
          <mxGeometry x="180" y="210" width="120" height="60" as="geometry" />
        </mxCell>
        <mxCell id="xtoXwIOmK_JS2XSk1O71-8" value="商品服务" style="rounded=1;whiteSpace=wrap;html=1;fillColor=#d5e8d4;strokeColor=#82b366;" parent="1" vertex="1">
          <mxGeometry x="180" y="290" width="120" height="60" as="geometry" />
        </mxCell>
        <mxCell id="xtoXwIOmK_JS2XSk1O71-9" value="订单服务" style="rounded=1;whiteSpace=wrap;html=1;fillColor=#d5e8d4;strokeColor=#82b366;" parent="1" vertex="1">
          <mxGeometry x="334" y="210" width="120" height="60" as="geometry" />
        </mxCell>
        <mxCell id="xtoXwIOmK_JS2XSk1O71-10" value="优惠券服务" style="rounded=1;whiteSpace=wrap;html=1;fillColor=#d5e8d4;strokeColor=#82b366;" parent="1" vertex="1">
          <mxGeometry x="334" y="290" width="120" height="60" as="geometry" />
        </mxCell>
        <mxCell id="xtoXwIOmK_JS2XSk1O71-11" value="秒杀服务" style="rounded=1;whiteSpace=wrap;html=1;fillColor=#d5e8d4;strokeColor=#82b366;" parent="1" vertex="1">
          <mxGeometry x="500" y="210" width="120" height="60" as="geometry" />
        </mxCell>
        <mxCell id="xtoXwIOmK_JS2XSk1O71-12" value="搜索服务" style="rounded=1;whiteSpace=wrap;html=1;fillColor=#d5e8d4;strokeColor=#82b366;" parent="1" vertex="1">
          <mxGeometry x="500" y="290" width="120" height="60" as="geometry" />
        </mxCell>
        <mxCell id="xtoXwIOmK_JS2XSk1O71-13" value="支付服务" style="rounded=1;whiteSpace=wrap;html=1;fillColor=#d5e8d4;strokeColor=#82b366;" parent="1" vertex="1">
          <mxGeometry x="334" y="380" width="120" height="60" as="geometry" />
        </mxCell>
        <mxCell id="xtoXwIOmK_JS2XSk1O71-14" value="账单服务" style="rounded=1;whiteSpace=wrap;html=1;fillColor=#d5e8d4;strokeColor=#82b366;" parent="1" vertex="1">
          <mxGeometry x="180" y="380" width="120" height="60" as="geometry" />
        </mxCell>
        <mxCell id="xtoXwIOmK_JS2XSk1O71-16" value="" style="rounded=0;whiteSpace=wrap;html=1;fillColor=#f5f5f5;strokeColor=#666666;fontColor=#333333;" parent="1" vertex="1">
          <mxGeometry x="150" y="502.5" width="500" height="110" as="geometry" />
        </mxCell>
        <mxCell id="xtoXwIOmK_JS2XSk1O71-18" value="存储" style="shape=cylinder3;whiteSpace=wrap;html=1;boundedLbl=1;backgroundOutline=1;size=15;fillColor=#f5f5f5;gradientColor=#b3b3b3;strokeColor=#666666;" parent="1" vertex="1">
          <mxGeometry x="220" y="520" width="90" height="70" as="geometry" />
        </mxCell>
        <mxCell id="xtoXwIOmK_JS2XSk1O71-19" value="缓存" style="ellipse;shape=cloud;whiteSpace=wrap;html=1;fillColor=#f5f5f5;gradientColor=#b3b3b3;strokeColor=#666666;" parent="1" vertex="1">
          <mxGeometry x="490" y="520" width="100" height="70" as="geometry" />
        </mxCell>
        <mxCell id="xtoXwIOmK_JS2XSk1O71-26" value="访问层" style="rounded=0;whiteSpace=wrap;html=1;fillColor=#e3c800;fontColor=#000000;strokeColor=#B09500;" parent="1" vertex="1">
          <mxGeometry x="60" y="90" width="70" height="70" as="geometry" />
        </mxCell>
        <mxCell id="xtoXwIOmK_JS2XSk1O71-27" value="服务层" style="rounded=0;whiteSpace=wrap;html=1;fillColor=#e3c800;fontColor=#000000;strokeColor=#B09500;" parent="1" vertex="1">
          <mxGeometry x="60" y="190" width="70" height="280" as="geometry" />
        </mxCell>
        <mxCell id="xtoXwIOmK_JS2XSk1O71-28" value="数据存储" style="rounded=0;whiteSpace=wrap;html=1;fillColor=#e3c800;fontColor=#000000;strokeColor=#B09500;" parent="1" vertex="1">
          <mxGeometry x="60" y="500" width="70" height="110" as="geometry" />
        </mxCell>
        <mxCell id="E2RCYmBUNRqEtysCa7kY-1" value="服务器" style="rounded=0;whiteSpace=wrap;html=1;fillColor=#e3c800;fontColor=#000000;strokeColor=#B09500;" parent="1" vertex="1">
          <mxGeometry x="60" y="640" width="70" height="60" as="geometry" />
        </mxCell>
        <mxCell id="E2RCYmBUNRqEtysCa7kY-2" value="ECS" style="rounded=0;whiteSpace=wrap;html=1;fillColor=#f5f5f5;strokeColor=#666666;fontColor=#333333;" parent="1" vertex="1">
          <mxGeometry x="150" y="640" width="500" height="60" as="geometry" />
        </mxCell>
        <mxCell id="E2RCYmBUNRqEtysCa7kY-3" value="三方服务" style="rounded=1;whiteSpace=wrap;html=1;fillColor=#d5e8d4;strokeColor=#82b366;" parent="1" vertex="1">
          <mxGeometry x="500" y="380" width="120" height="60" as="geometry" />
        </mxCell>
        <mxCell id="zcS3qdO_pKeFqx_SqvbG-1" value="&lt;b&gt;&lt;font style=&quot;font-size: 16px;&quot;&gt;业务架构图&lt;/font&gt;&lt;/b&gt;" style="rounded=0;whiteSpace=wrap;html=1;" parent="1" vertex="1">
          <mxGeometry x="60" width="120" height="60" as="geometry" />
        </mxCell>
      </root>
    </mxGraphModel>
  </diagram>
  <diagram id="-EAZNEgunmirefUGwum4" name="应用图">
    <mxGraphModel dx="2013" dy="1883" grid="1" gridSize="10" guides="1" tooltips="1" connect="1" arrows="1" fold="1" page="1" pageScale="1" pageWidth="827" pageHeight="1169" math="0" shadow="0">
      <root>
        <mxCell id="0" />
        <mxCell id="1" parent="0" />
        <mxCell id="mnMwLImzIGz6q7EHPFvU-1" value="应用架构图" style="rounded=0;whiteSpace=wrap;html=1;fontSize=16;" parent="1" vertex="1">
          <mxGeometry x="-50" y="-10" width="120" height="60" as="geometry" />
        </mxCell>
        <mxCell id="CRw9hJQ0sodZ4lMIkbq--1" value="" style="rounded=0;whiteSpace=wrap;html=1;fontSize=16;fillColor=#f5f5f5;fontColor=#333333;strokeColor=#666666;" parent="1" vertex="1">
          <mxGeometry x="210" y="50" width="470" height="80" as="geometry" />
        </mxCell>
        <mxCell id="d3U4OvfFF0gRjJILiXkg-1" value="PC" style="rounded=1;whiteSpace=wrap;html=1;fillColor=#f8cecc;strokeColor=#b85450;" parent="1" vertex="1">
          <mxGeometry x="240" y="60" width="80" height="50" as="geometry" />
        </mxCell>
        <mxCell id="d3U4OvfFF0gRjJILiXkg-2" value="小程序" style="rounded=1;whiteSpace=wrap;html=1;fillColor=#f8cecc;strokeColor=#b85450;" parent="1" vertex="1">
          <mxGeometry x="580" y="60" width="80" height="50" as="geometry" />
        </mxCell>
        <mxCell id="d3U4OvfFF0gRjJILiXkg-3" value="H5" style="rounded=1;whiteSpace=wrap;html=1;fillColor=#f8cecc;strokeColor=#b85450;" parent="1" vertex="1">
          <mxGeometry x="414" y="60" width="80" height="50" as="geometry" />
        </mxCell>
        <mxCell id="d3U4OvfFF0gRjJILiXkg-5" value="" style="rounded=0;whiteSpace=wrap;html=1;fontSize=16;fillColor=#ffe6cc;strokeColor=#d79b00;" parent="1" vertex="1">
          <mxGeometry x="210" y="220" width="470" height="270" as="geometry" />
        </mxCell>
        <mxCell id="d3U4OvfFF0gRjJILiXkg-6" value="用户服务" style="rounded=1;whiteSpace=wrap;html=1;fillColor=#d5e8d4;strokeColor=#82b366;" parent="1" vertex="1">
          <mxGeometry x="230" y="240" width="120" height="60" as="geometry" />
        </mxCell>
        <mxCell id="d3U4OvfFF0gRjJILiXkg-7" value="支付服务" style="rounded=1;whiteSpace=wrap;html=1;fillColor=#d5e8d4;strokeColor=#82b366;" parent="1" vertex="1">
          <mxGeometry x="230" y="320" width="120" height="60" as="geometry" />
        </mxCell>
        <mxCell id="d3U4OvfFF0gRjJILiXkg-8" value="订单服务" style="rounded=1;whiteSpace=wrap;html=1;fillColor=#d5e8d4;strokeColor=#82b366;" parent="1" vertex="1">
          <mxGeometry x="550" y="240" width="120" height="60" as="geometry" />
        </mxCell>
        <mxCell id="d3U4OvfFF0gRjJILiXkg-9" value="商品服务" style="rounded=1;whiteSpace=wrap;html=1;fillColor=#d5e8d4;strokeColor=#82b366;" parent="1" vertex="1">
          <mxGeometry x="385" y="240" width="120" height="60" as="geometry" />
        </mxCell>
        <mxCell id="d3U4OvfFF0gRjJILiXkg-10" value="秒杀服务" style="rounded=1;whiteSpace=wrap;html=1;fillColor=#d5e8d4;strokeColor=#82b366;" parent="1" vertex="1">
          <mxGeometry x="230" y="400" width="120" height="60" as="geometry" />
        </mxCell>
        <mxCell id="d3U4OvfFF0gRjJILiXkg-11" value="统计服务" style="rounded=1;whiteSpace=wrap;html=1;fillColor=#d5e8d4;strokeColor=#82b366;" parent="1" vertex="1">
          <mxGeometry x="550" y="320" width="120" height="60" as="geometry" />
        </mxCell>
        <mxCell id="d3U4OvfFF0gRjJILiXkg-12" value="账单服务" style="rounded=1;whiteSpace=wrap;html=1;fillColor=#d5e8d4;strokeColor=#82b366;" parent="1" vertex="1">
          <mxGeometry x="385" y="320" width="120" height="60" as="geometry" />
        </mxCell>
        <mxCell id="d3U4OvfFF0gRjJILiXkg-14" value="三方服务" style="rounded=1;whiteSpace=wrap;html=1;fillColor=#d5e8d4;strokeColor=#82b366;" parent="1" vertex="1">
          <mxGeometry x="550" y="400" width="120" height="60" as="geometry" />
        </mxCell>
        <mxCell id="d3U4OvfFF0gRjJILiXkg-15" value="搜索服务" style="rounded=1;whiteSpace=wrap;html=1;fillColor=#d5e8d4;strokeColor=#82b366;" parent="1" vertex="1">
          <mxGeometry x="385" y="400" width="120" height="60" as="geometry" />
        </mxCell>
        <mxCell id="TOafSW1gS1YSEg1aPTFh-1" value="" style="rounded=0;whiteSpace=wrap;html=1;fontSize=16;fillColor=#e1d5e7;strokeColor=#9673a6;" parent="1" vertex="1">
          <mxGeometry x="210" y="510" width="470" height="115" as="geometry" />
        </mxCell>
        <mxCell id="TOafSW1gS1YSEg1aPTFh-2" value="DB" style="shape=cylinder3;whiteSpace=wrap;html=1;boundedLbl=1;backgroundOutline=1;size=15;fillColor=#f5f5f5;gradientColor=#b3b3b3;strokeColor=#666666;" parent="1" vertex="1">
          <mxGeometry x="220" y="525" width="70" height="90" as="geometry" />
        </mxCell>
        <mxCell id="vaPCh-oCsp7Cv2tTnfEl-1" value="缓存" style="ellipse;shape=cloud;whiteSpace=wrap;html=1;fillColor=#f5f5f5;gradientColor=#b3b3b3;strokeColor=#666666;" parent="1" vertex="1">
          <mxGeometry x="310" y="535" width="100" height="70" as="geometry" />
        </mxCell>
        <mxCell id="vaPCh-oCsp7Cv2tTnfEl-2" value="MQ" style="ellipse;whiteSpace=wrap;html=1;fontSize=12;fillColor=#f5f5f5;strokeColor=#666666;gradientColor=#b3b3b3;" parent="1" vertex="1">
          <mxGeometry x="420" y="530" width="100" height="75" as="geometry" />
        </mxCell>
        <mxCell id="vaPCh-oCsp7Cv2tTnfEl-3" value="搜索引擎" style="shape=parallelogram;perimeter=parallelogramPerimeter;whiteSpace=wrap;html=1;fixedSize=1;fontSize=12;fillColor=#f5f5f5;gradientColor=#b3b3b3;strokeColor=#666666;" parent="1" vertex="1">
          <mxGeometry x="530" y="535" width="100" height="60" as="geometry" />
        </mxCell>
        <mxCell id="vaPCh-oCsp7Cv2tTnfEl-4" value="ECS" style="rounded=0;whiteSpace=wrap;html=1;fontSize=16;fillColor=#b1ddf0;strokeColor=#10739e;" parent="1" vertex="1">
          <mxGeometry x="210" y="650" width="470" height="50" as="geometry" />
        </mxCell>
        <mxCell id="vaPCh-oCsp7Cv2tTnfEl-7" value="" style="rounded=0;whiteSpace=wrap;html=1;fontSize=12;fillColor=#dae8fc;strokeColor=#6c8ebf;" parent="1" vertex="1">
          <mxGeometry x="210" y="150" width="470" height="50" as="geometry" />
        </mxCell>
        <mxCell id="vaPCh-oCsp7Cv2tTnfEl-8" value="服务端网关" style="rounded=1;whiteSpace=wrap;html=1;fontSize=12;fillColor=#fff2cc;gradientColor=#ffd966;strokeColor=#d6b656;" parent="1" vertex="1">
          <mxGeometry x="255" y="157.5" width="130" height="32.5" as="geometry" />
        </mxCell>
        <mxCell id="vaPCh-oCsp7Cv2tTnfEl-9" value="应用网关" style="rounded=1;whiteSpace=wrap;html=1;fontSize=12;fillColor=#fff2cc;gradientColor=#ffd966;strokeColor=#d6b656;" parent="1" vertex="1">
          <mxGeometry x="505" y="157.5" width="130" height="32.5" as="geometry" />
        </mxCell>
        <mxCell id="xbIH10EtjWTf_hWt936f-1" value="访问层" style="rounded=0;whiteSpace=wrap;html=1;fillColor=#eeeeee;strokeColor=#36393d;" parent="1" vertex="1">
          <mxGeometry x="100" y="50" width="70" height="70" as="geometry" />
        </mxCell>
        <mxCell id="xbIH10EtjWTf_hWt936f-2" value="服务层" style="rounded=0;whiteSpace=wrap;html=1;fillColor=#eeeeee;strokeColor=#36393d;" parent="1" vertex="1">
          <mxGeometry x="100" y="220" width="70" height="270" as="geometry" />
        </mxCell>
        <mxCell id="xbIH10EtjWTf_hWt936f-3" value="数据存储" style="rounded=0;whiteSpace=wrap;html=1;fillColor=#eeeeee;strokeColor=#36393d;" parent="1" vertex="1">
          <mxGeometry x="100" y="512.5" width="70" height="110" as="geometry" />
        </mxCell>
        <mxCell id="xbIH10EtjWTf_hWt936f-4" value="服务器" style="rounded=0;whiteSpace=wrap;html=1;fillColor=#eeeeee;strokeColor=#36393d;" parent="1" vertex="1">
          <mxGeometry x="100" y="650" width="70" height="50" as="geometry" />
        </mxCell>
        <mxCell id="xbIH10EtjWTf_hWt936f-5" value="访问层" style="rounded=0;whiteSpace=wrap;html=1;fillColor=#eeeeee;strokeColor=#36393d;" parent="1" vertex="1">
          <mxGeometry x="100" y="140" width="70" height="60" as="geometry" />
        </mxCell>
      </root>
    </mxGraphModel>
  </diagram>
  <diagram id="GV_tYBrNulSycVrc6Mj5" name="技术架构图">
    <mxGraphModel dx="2013" dy="1883" grid="1" gridSize="10" guides="1" tooltips="1" connect="1" arrows="1" fold="1" page="1" pageScale="1" pageWidth="827" pageHeight="1169" math="0" shadow="0">
      <root>
        <mxCell id="0" />
        <mxCell id="1" parent="0" />
        <mxCell id="Jwzpav3NZzIgkcUFiGqh-1" value="技术架构图" style="rounded=0;whiteSpace=wrap;html=1;fontSize=16;" parent="1" vertex="1">
          <mxGeometry x="-50" y="-10" width="120" height="60" as="geometry" />
        </mxCell>
        <mxCell id="Jwzpav3NZzIgkcUFiGqh-2" value="" style="rounded=0;whiteSpace=wrap;html=1;fontSize=16;fillColor=#f5f5f5;fontColor=#333333;strokeColor=#666666;" parent="1" vertex="1">
          <mxGeometry x="210" y="50" width="580" height="80" as="geometry" />
        </mxCell>
        <mxCell id="Jwzpav3NZzIgkcUFiGqh-3" value="PC" style="rounded=1;whiteSpace=wrap;html=1;fillColor=#f8cecc;strokeColor=#b85450;" parent="1" vertex="1">
          <mxGeometry x="240" y="60" width="80" height="50" as="geometry" />
        </mxCell>
        <mxCell id="Jwzpav3NZzIgkcUFiGqh-4" value="小程序" style="rounded=1;whiteSpace=wrap;html=1;fillColor=#f8cecc;strokeColor=#b85450;" parent="1" vertex="1">
          <mxGeometry x="650" y="60" width="80" height="50" as="geometry" />
        </mxCell>
        <mxCell id="Jwzpav3NZzIgkcUFiGqh-5" value="H5" style="rounded=1;whiteSpace=wrap;html=1;fillColor=#f8cecc;strokeColor=#b85450;" parent="1" vertex="1">
          <mxGeometry x="450" y="60" width="80" height="50" as="geometry" />
        </mxCell>
        <UserObject label="" tags="常用" id="Jwzpav3NZzIgkcUFiGqh-6">
          <mxCell style="rounded=0;whiteSpace=wrap;html=1;fontSize=16;fillColor=#ffe6cc;strokeColor=#d79b00;" parent="1" vertex="1">
            <mxGeometry x="210" y="220" width="470" height="220" as="geometry" />
          </mxCell>
        </UserObject>
        <mxCell id="Jwzpav3NZzIgkcUFiGqh-7" value="用户服务" style="rounded=1;whiteSpace=wrap;html=1;fillColor=#d5e8d4;strokeColor=#82b366;" parent="1" vertex="1">
          <mxGeometry x="230" y="240" width="70" height="40" as="geometry" />
        </mxCell>
        <mxCell id="Jwzpav3NZzIgkcUFiGqh-16" value="" style="rounded=0;whiteSpace=wrap;html=1;fontSize=16;fillColor=#e1d5e7;strokeColor=#9673a6;" parent="1" vertex="1">
          <mxGeometry x="210" y="470" width="580" height="110" as="geometry" />
        </mxCell>
        <mxCell id="Jwzpav3NZzIgkcUFiGqh-17" value="mysql" style="shape=cylinder3;whiteSpace=wrap;html=1;boundedLbl=1;backgroundOutline=1;size=15;fillColor=#f5f5f5;gradientColor=#b3b3b3;strokeColor=#666666;" parent="1" vertex="1">
          <mxGeometry x="220" y="485" width="70" height="90" as="geometry" />
        </mxCell>
        <mxCell id="Jwzpav3NZzIgkcUFiGqh-18" value="redis" style="ellipse;shape=cloud;whiteSpace=wrap;html=1;fillColor=#f5f5f5;gradientColor=#b3b3b3;strokeColor=#666666;" parent="1" vertex="1">
          <mxGeometry x="320" y="495" width="100" height="70" as="geometry" />
        </mxCell>
        <mxCell id="Jwzpav3NZzIgkcUFiGqh-19" value="rocketMQ" style="ellipse;whiteSpace=wrap;html=1;fontSize=12;fillColor=#f5f5f5;strokeColor=#666666;gradientColor=#b3b3b3;" parent="1" vertex="1">
          <mxGeometry x="450" y="497.5" width="84" height="62.5" as="geometry" />
        </mxCell>
        <mxCell id="Jwzpav3NZzIgkcUFiGqh-21" value="ECS" style="rounded=0;whiteSpace=wrap;html=1;fontSize=16;fillColor=#b1ddf0;strokeColor=#10739e;" parent="1" vertex="1">
          <mxGeometry x="210" y="610" width="580" height="50" as="geometry" />
        </mxCell>
        <mxCell id="Jwzpav3NZzIgkcUFiGqh-22" value="" style="rounded=0;whiteSpace=wrap;html=1;fontSize=12;fillColor=#dae8fc;strokeColor=#6c8ebf;" parent="1" vertex="1">
          <mxGeometry x="210" y="150" width="470" height="50" as="geometry" />
        </mxCell>
        <mxCell id="Jwzpav3NZzIgkcUFiGqh-23" value="nginx" style="rounded=1;whiteSpace=wrap;html=1;fontSize=12;fillColor=#fff2cc;gradientColor=#ffd966;strokeColor=#d6b656;" parent="1" vertex="1">
          <mxGeometry x="255" y="157.5" width="130" height="32.5" as="geometry" />
        </mxCell>
        <mxCell id="Jwzpav3NZzIgkcUFiGqh-24" value="api-gateway" style="rounded=1;whiteSpace=wrap;html=1;fontSize=12;fillColor=#fff2cc;gradientColor=#ffd966;strokeColor=#d6b656;" parent="1" vertex="1">
          <mxGeometry x="505" y="157.5" width="130" height="32.5" as="geometry" />
        </mxCell>
        <mxCell id="Jwzpav3NZzIgkcUFiGqh-25" value="访问层" style="rounded=0;whiteSpace=wrap;html=1;fillColor=#eeeeee;strokeColor=#36393d;" parent="1" vertex="1">
          <mxGeometry x="100" y="50" width="70" height="80" as="geometry" />
        </mxCell>
        <mxCell id="Jwzpav3NZzIgkcUFiGqh-26" value="服务层" style="rounded=0;whiteSpace=wrap;html=1;fillColor=#eeeeee;strokeColor=#36393d;" parent="1" vertex="1">
          <mxGeometry x="100" y="220" width="70" height="220" as="geometry" />
        </mxCell>
        <mxCell id="Jwzpav3NZzIgkcUFiGqh-27" value="数据存储" style="rounded=0;whiteSpace=wrap;html=1;fillColor=#eeeeee;strokeColor=#36393d;" parent="1" vertex="1">
          <mxGeometry x="100" y="472.5" width="70" height="110" as="geometry" />
        </mxCell>
        <mxCell id="Jwzpav3NZzIgkcUFiGqh-28" value="服务器" style="rounded=0;whiteSpace=wrap;html=1;fillColor=#eeeeee;strokeColor=#36393d;" parent="1" vertex="1">
          <mxGeometry x="100" y="610" width="70" height="50" as="geometry" />
        </mxCell>
        <mxCell id="Jwzpav3NZzIgkcUFiGqh-29" value="访问层" style="rounded=0;whiteSpace=wrap;html=1;fillColor=#eeeeee;strokeColor=#36393d;" parent="1" vertex="1">
          <mxGeometry x="100" y="150" width="70" height="50" as="geometry" />
        </mxCell>
        <mxCell id="Jwzpav3NZzIgkcUFiGqh-30" value="es" style="ellipse;whiteSpace=wrap;html=1;fontSize=12;fillColor=#f5f5f5;strokeColor=#666666;gradientColor=#b3b3b3;" parent="1" vertex="1">
          <mxGeometry x="570" y="495" width="65" height="67.5" as="geometry" />
        </mxCell>
        <mxCell id="Jwzpav3NZzIgkcUFiGqh-31" value="阿里云oss" style="ellipse;whiteSpace=wrap;html=1;fontSize=12;fillColor=#f5f5f5;strokeColor=#666666;gradientColor=#b3b3b3;" parent="1" vertex="1">
          <mxGeometry x="680" y="498.13" width="70" height="63.75" as="geometry" />
        </mxCell>
        <mxCell id="Jwzpav3NZzIgkcUFiGqh-32" value="支付服务" style="rounded=1;whiteSpace=wrap;html=1;fillColor=#d5e8d4;strokeColor=#82b366;" parent="1" vertex="1">
          <mxGeometry x="230" y="300" width="70" height="40" as="geometry" />
        </mxCell>
        <mxCell id="Jwzpav3NZzIgkcUFiGqh-33" value="秒杀服务" style="rounded=1;whiteSpace=wrap;html=1;fillColor=#d5e8d4;strokeColor=#82b366;" parent="1" vertex="1">
          <mxGeometry x="320" y="300" width="70" height="40" as="geometry" />
        </mxCell>
        <mxCell id="Jwzpav3NZzIgkcUFiGqh-34" value="搜索服务" style="rounded=1;whiteSpace=wrap;html=1;fillColor=#d5e8d4;strokeColor=#82b366;" parent="1" vertex="1">
          <mxGeometry x="410" y="300" width="70" height="40" as="geometry" />
        </mxCell>
        <mxCell id="Jwzpav3NZzIgkcUFiGqh-35" value="订单服务" style="rounded=1;whiteSpace=wrap;html=1;fillColor=#d5e8d4;strokeColor=#82b366;" parent="1" vertex="1">
          <mxGeometry x="410" y="240" width="70" height="40" as="geometry" />
        </mxCell>
        <mxCell id="Jwzpav3NZzIgkcUFiGqh-36" value="商品服务" style="rounded=1;whiteSpace=wrap;html=1;fillColor=#d5e8d4;strokeColor=#82b366;" parent="1" vertex="1">
          <mxGeometry x="320" y="240" width="70" height="40" as="geometry" />
        </mxCell>
        <mxCell id="Jwzpav3NZzIgkcUFiGqh-37" value="三方服务" style="rounded=1;whiteSpace=wrap;html=1;fillColor=#d5e8d4;strokeColor=#82b366;" parent="1" vertex="1">
          <mxGeometry x="520" y="300" width="70" height="40" as="geometry" />
        </mxCell>
        <mxCell id="Jwzpav3NZzIgkcUFiGqh-38" value="账单服务" style="rounded=1;whiteSpace=wrap;html=1;fillColor=#d5e8d4;strokeColor=#82b366;" parent="1" vertex="1">
          <mxGeometry x="230" y="360" width="70" height="40" as="geometry" />
        </mxCell>
        <mxCell id="Jwzpav3NZzIgkcUFiGqh-39" value="统计服务" style="rounded=1;whiteSpace=wrap;html=1;fillColor=#d5e8d4;strokeColor=#82b366;" parent="1" vertex="1">
          <mxGeometry x="320" y="360" width="70" height="40" as="geometry" />
        </mxCell>
        <mxCell id="NscSC0sRA8JY8pedQbsX-1" value="" style="rounded=0;whiteSpace=wrap;html=1;fontSize=16;fillColor=#ffe6cc;strokeColor=#d79b00;" parent="1" vertex="1">
          <mxGeometry x="700" y="150" width="90" height="290" as="geometry" />
        </mxCell>
        <mxCell id="NscSC0sRA8JY8pedQbsX-2" value="注册中心nacos" style="rounded=1;whiteSpace=wrap;html=1;fillColor=#d5e8d4;strokeColor=#82b366;" parent="1" vertex="1">
          <mxGeometry x="710" y="155" width="70" height="40" as="geometry" />
        </mxCell>
        <mxCell id="NscSC0sRA8JY8pedQbsX-3" value="配置中心nacos" style="rounded=1;whiteSpace=wrap;html=1;fillColor=#d5e8d4;strokeColor=#82b366;" parent="1" vertex="1">
          <mxGeometry x="710" y="235" width="70" height="40" as="geometry" />
        </mxCell>
        <mxCell id="NscSC0sRA8JY8pedQbsX-4" value="限流中心sentinel" style="rounded=1;whiteSpace=wrap;html=1;fillColor=#d5e8d4;strokeColor=#82b366;" parent="1" vertex="1">
          <mxGeometry x="710" y="310" width="70" height="40" as="geometry" />
        </mxCell>
        <mxCell id="NscSC0sRA8JY8pedQbsX-6" value="定时任务&lt;br&gt;xxl-job" style="rounded=1;whiteSpace=wrap;html=1;fillColor=#d5e8d4;strokeColor=#82b366;" parent="1" vertex="1">
          <mxGeometry x="520" y="240" width="70" height="40" as="geometry" />
        </mxCell>
        <mxCell id="NscSC0sRA8JY8pedQbsX-7" value="日志监控ELK" style="rounded=1;whiteSpace=wrap;html=1;fillColor=#d5e8d4;strokeColor=#82b366;" parent="1" vertex="1">
          <mxGeometry x="710" y="380" width="70" height="40" as="geometry" />
        </mxCell>
      </root>
    </mxGraphModel>
  </diagram>
  <diagram id="6BwU6NLxnyeOMRsvWoO8" name="数据架构图">
    <mxGraphModel dx="1186" dy="714" grid="1" gridSize="10" guides="1" tooltips="1" connect="1" arrows="1" fold="1" page="1" pageScale="1" pageWidth="827" pageHeight="1169" math="0" shadow="0">
      <root>
        <mxCell id="0" />
        <mxCell id="1" parent="0" />
        <mxCell id="l6dUDujn5eLXSEq888c1-1" value="订单数据架构图" style="rounded=0;whiteSpace=wrap;html=1;fontSize=12;" parent="1" vertex="1">
          <mxGeometry x="70" y="80" width="120" height="60" as="geometry" />
        </mxCell>
        <mxCell id="l6dUDujn5eLXSEq888c1-2" value="商家运营" style="shape=umlActor;verticalLabelPosition=bottom;verticalAlign=top;html=1;outlineConnect=0;fontSize=12;" parent="1" vertex="1">
          <mxGeometry x="810" y="270" width="40" height="80" as="geometry" />
        </mxCell>
        <mxCell id="l6dUDujn5eLXSEq888c1-3" value="" style="endArrow=classic;html=1;rounded=0;fontSize=12;" parent="1" edge="1">
          <mxGeometry width="50" height="50" relative="1" as="geometry">
            <mxPoint x="160" y="220" as="sourcePoint" />
            <mxPoint x="250" y="220" as="targetPoint" />
          </mxGeometry>
        </mxCell>
        <mxCell id="l6dUDujn5eLXSEq888c1-6" style="edgeStyle=orthogonalEdgeStyle;rounded=0;orthogonalLoop=1;jettySize=auto;html=1;fontSize=12;" parent="1" source="l6dUDujn5eLXSEq888c1-4" target="l6dUDujn5eLXSEq888c1-5" edge="1">
          <mxGeometry relative="1" as="geometry">
            <Array as="points">
              <mxPoint x="480" y="220" />
              <mxPoint x="480" y="220" />
            </Array>
          </mxGeometry>
        </mxCell>
        <mxCell id="l6dUDujn5eLXSEq888c1-7" value="下单" style="edgeLabel;html=1;align=center;verticalAlign=middle;resizable=0;points=[];fontSize=12;" parent="l6dUDujn5eLXSEq888c1-6" vertex="1" connectable="0">
          <mxGeometry x="-0.1333" y="1" relative="1" as="geometry">
            <mxPoint as="offset" />
          </mxGeometry>
        </mxCell>
        <mxCell id="l6dUDujn5eLXSEq888c1-4" value="商城H5" style="rounded=1;whiteSpace=wrap;html=1;fontSize=12;" parent="1" vertex="1">
          <mxGeometry x="270" y="190" width="120" height="60" as="geometry" />
        </mxCell>
        <mxCell id="l6dUDujn5eLXSEq888c1-5" value="订单db" style="rounded=1;whiteSpace=wrap;html=1;fontSize=12;" parent="1" vertex="1">
          <mxGeometry x="490" y="190" width="50" height="670" as="geometry" />
        </mxCell>
        <mxCell id="l6dUDujn5eLXSEq888c1-8" value="用户" style="shape=umlActor;verticalLabelPosition=bottom;verticalAlign=top;html=1;outlineConnect=0;fontSize=12;" parent="1" vertex="1">
          <mxGeometry x="110" y="190" width="40" height="60" as="geometry" />
        </mxCell>
        <mxCell id="l6dUDujn5eLXSEq888c1-24" value="" style="endArrow=classic;startArrow=classic;html=1;rounded=0;fontSize=12;" parent="1" edge="1">
          <mxGeometry width="50" height="50" relative="1" as="geometry">
            <mxPoint x="560" y="309.5" as="sourcePoint" />
            <mxPoint x="780" y="309.5" as="targetPoint" />
            <Array as="points">
              <mxPoint x="560" y="309.5" />
            </Array>
          </mxGeometry>
        </mxCell>
        <mxCell id="l6dUDujn5eLXSEq888c1-25" value="查看待发货单，发货，更新订单状态" style="edgeLabel;html=1;align=center;verticalAlign=middle;resizable=0;points=[];fontSize=12;" parent="l6dUDujn5eLXSEq888c1-24" vertex="1" connectable="0">
          <mxGeometry x="-0.0818" relative="1" as="geometry">
            <mxPoint as="offset" />
          </mxGeometry>
        </mxCell>
        <mxCell id="l6dUDujn5eLXSEq888c1-26" value="用户" style="shape=umlActor;verticalLabelPosition=bottom;verticalAlign=top;html=1;outlineConnect=0;fontSize=12;" parent="1" vertex="1">
          <mxGeometry x="110" y="350" width="40" height="60" as="geometry" />
        </mxCell>
        <mxCell id="l6dUDujn5eLXSEq888c1-27" value="查看订单，收货，更新订单状态" style="endArrow=classic;html=1;rounded=0;fontSize=12;" parent="1" edge="1">
          <mxGeometry width="50" height="50" relative="1" as="geometry">
            <mxPoint x="180" y="390" as="sourcePoint" />
            <mxPoint x="470" y="390" as="targetPoint" />
            <Array as="points">
              <mxPoint x="470" y="390" />
            </Array>
          </mxGeometry>
        </mxCell>
        <mxCell id="l6dUDujn5eLXSEq888c1-29" value="收货-已完成" style="rounded=1;whiteSpace=wrap;html=1;fontSize=12;" parent="1" vertex="1">
          <mxGeometry x="430" y="410" width="50" height="30" as="geometry" />
        </mxCell>
        <mxCell id="l6dUDujn5eLXSEq888c1-30" value="待发货" style="rounded=1;whiteSpace=wrap;html=1;fontSize=12;" parent="1" vertex="1">
          <mxGeometry x="430" y="240" width="50" height="30" as="geometry" />
        </mxCell>
        <mxCell id="l6dUDujn5eLXSEq888c1-31" value="已发货" style="rounded=1;whiteSpace=wrap;html=1;fontSize=12;" parent="1" vertex="1">
          <mxGeometry x="570" y="340" width="50" height="30" as="geometry" />
        </mxCell>
        <mxCell id="l6dUDujn5eLXSEq888c1-32" value="用户" style="shape=umlActor;verticalLabelPosition=bottom;verticalAlign=top;html=1;outlineConnect=0;fontSize=12;" parent="1" vertex="1">
          <mxGeometry x="110" y="480" width="40" height="60" as="geometry" />
        </mxCell>
        <mxCell id="l6dUDujn5eLXSEq888c1-33" value="退货，新增退货单" style="endArrow=classic;html=1;rounded=0;fontSize=12;" parent="1" edge="1">
          <mxGeometry width="50" height="50" relative="1" as="geometry">
            <mxPoint x="160" y="509.5" as="sourcePoint" />
            <mxPoint x="450" y="509.5" as="targetPoint" />
            <Array as="points" />
          </mxGeometry>
        </mxCell>
        <mxCell id="l6dUDujn5eLXSEq888c1-34" value="售后-待处理" style="rounded=1;whiteSpace=wrap;html=1;fontSize=12;" parent="1" vertex="1">
          <mxGeometry x="430" y="530" width="50" height="30" as="geometry" />
        </mxCell>
        <mxCell id="l6dUDujn5eLXSEq888c1-35" value="审核，同意，填写收货地址" style="endArrow=classic;html=1;rounded=0;fontSize=12;" parent="1" edge="1">
          <mxGeometry width="50" height="50" relative="1" as="geometry">
            <mxPoint x="760" y="560" as="sourcePoint" />
            <mxPoint x="580" y="560" as="targetPoint" />
          </mxGeometry>
        </mxCell>
        <mxCell id="l6dUDujn5eLXSEq888c1-36" value="商家运营" style="shape=umlActor;verticalLabelPosition=bottom;verticalAlign=top;html=1;outlineConnect=0;fontSize=12;" parent="1" vertex="1">
          <mxGeometry x="790" y="510" width="37" height="80" as="geometry" />
        </mxCell>
        <mxCell id="l6dUDujn5eLXSEq888c1-38" value="售后-同意" style="rounded=1;whiteSpace=wrap;html=1;fontSize=12;" parent="1" vertex="1">
          <mxGeometry x="570" y="570" width="50" height="30" as="geometry" />
        </mxCell>
        <mxCell id="l6dUDujn5eLXSEq888c1-39" value="寄回 商品" style="endArrow=classic;html=1;rounded=0;fontSize=12;" parent="1" edge="1">
          <mxGeometry width="50" height="50" relative="1" as="geometry">
            <mxPoint x="180" y="665" as="sourcePoint" />
            <mxPoint x="470" y="665" as="targetPoint" />
            <Array as="points" />
          </mxGeometry>
        </mxCell>
        <mxCell id="l6dUDujn5eLXSEq888c1-40" value="用户" style="shape=umlActor;verticalLabelPosition=bottom;verticalAlign=top;html=1;outlineConnect=0;fontSize=12;" parent="1" vertex="1">
          <mxGeometry x="110" y="640" width="40" height="60" as="geometry" />
        </mxCell>
        <mxCell id="l6dUDujn5eLXSEq888c1-41" value="售后-寄回已发货" style="rounded=1;whiteSpace=wrap;html=1;fontSize=12;" parent="1" vertex="1">
          <mxGeometry x="430" y="685" width="50" height="30" as="geometry" />
        </mxCell>
        <mxCell id="l6dUDujn5eLXSEq888c1-45" value="售后-已收退货" style="endArrow=classic;html=1;rounded=0;fontSize=12;" parent="1" edge="1">
          <mxGeometry width="50" height="50" relative="1" as="geometry">
            <mxPoint x="743" y="720" as="sourcePoint" />
            <mxPoint x="563" y="720" as="targetPoint" />
          </mxGeometry>
        </mxCell>
        <mxCell id="l6dUDujn5eLXSEq888c1-46" value="商家运营" style="shape=umlActor;verticalLabelPosition=bottom;verticalAlign=top;html=1;outlineConnect=0;fontSize=12;" parent="1" vertex="1">
          <mxGeometry x="773" y="670" width="37" height="80" as="geometry" />
        </mxCell>
        <mxCell id="l6dUDujn5eLXSEq888c1-47" value="售后-退款" style="rounded=1;whiteSpace=wrap;html=1;fontSize=12;" parent="1" vertex="1">
          <mxGeometry x="553" y="740" width="50" height="30" as="geometry" />
        </mxCell>
        <mxCell id="l6dUDujn5eLXSEq888c1-48" value="收到退款" style="endArrow=classic;html=1;rounded=0;fontSize=12;" parent="1" edge="1">
          <mxGeometry width="50" height="50" relative="1" as="geometry">
            <mxPoint x="180" y="825" as="sourcePoint" />
            <mxPoint x="470" y="825" as="targetPoint" />
            <Array as="points" />
          </mxGeometry>
        </mxCell>
        <mxCell id="l6dUDujn5eLXSEq888c1-49" value="用户" style="shape=umlActor;verticalLabelPosition=bottom;verticalAlign=top;html=1;outlineConnect=0;fontSize=12;" parent="1" vertex="1">
          <mxGeometry x="110" y="800" width="40" height="60" as="geometry" />
        </mxCell>
        <mxCell id="l6dUDujn5eLXSEq888c1-50" value="售后-已完成" style="rounded=1;whiteSpace=wrap;html=1;fontSize=12;" parent="1" vertex="1">
          <mxGeometry x="430" y="830" width="50" height="30" as="geometry" />
        </mxCell>
        <mxCell id="sMSv_lGJ8Czs_id8nLD5-1" value="商家运营端" style="rounded=1;whiteSpace=wrap;html=1;fontSize=12;" parent="1" vertex="1">
          <mxGeometry x="620" y="190" width="120" height="60" as="geometry" />
        </mxCell>
      </root>
    </mxGraphModel>
  </diagram>
  <diagram id="M6vDhGYr25_s2HaF3He2" name="学员点播视频">
    <mxGraphModel dx="2013" dy="714" grid="1" gridSize="10" guides="1" tooltips="1" connect="1" arrows="1" fold="1" page="1" pageScale="1" pageWidth="827" pageHeight="1169" math="0" shadow="0">
      <root>
        <mxCell id="0" />
        <mxCell id="1" parent="0" />
        <mxCell id="dX-S3H51SPKCV-vBjsja-1" value="学员点播视频时序图" style="rounded=0;whiteSpace=wrap;html=1;fontSize=12;" parent="1" vertex="1">
          <mxGeometry x="-50" y="30" width="120" height="50" as="geometry" />
        </mxCell>
        <mxCell id="-FQO2a4cCp6h9veF90y7-2" value="学员" style="shape=umlLifeline;perimeter=lifelinePerimeter;whiteSpace=wrap;html=1;container=1;collapsible=0;recursiveResize=0;outlineConnect=0;" vertex="1" parent="1">
          <mxGeometry x="-50" y="130" width="100" height="490" as="geometry" />
        </mxCell>
        <mxCell id="-FQO2a4cCp6h9veF90y7-6" value="点击播放视频" style="html=1;verticalAlign=bottom;endArrow=block;rounded=0;" edge="1" parent="-FQO2a4cCp6h9veF90y7-2" target="-FQO2a4cCp6h9veF90y7-3">
          <mxGeometry width="80" relative="1" as="geometry">
            <mxPoint x="60" y="90" as="sourcePoint" />
            <mxPoint x="140" y="90" as="targetPoint" />
          </mxGeometry>
        </mxCell>
        <mxCell id="-FQO2a4cCp6h9veF90y7-22" value="展示给学员" style="html=1;verticalAlign=bottom;endArrow=block;rounded=0;" edge="1" parent="-FQO2a4cCp6h9veF90y7-2">
          <mxGeometry width="80" relative="1" as="geometry">
            <mxPoint x="200" y="440" as="sourcePoint" />
            <mxPoint x="70" y="440" as="targetPoint" />
          </mxGeometry>
        </mxCell>
        <mxCell id="-FQO2a4cCp6h9veF90y7-27" value="" style="html=1;points=[];perimeter=orthogonalPerimeter;fillColor=#d5e8d4;strokeColor=#82b366;" vertex="1" parent="-FQO2a4cCp6h9veF90y7-2">
          <mxGeometry x="45" y="80" width="10" height="380" as="geometry" />
        </mxCell>
        <mxCell id="-FQO2a4cCp6h9veF90y7-3" value="&lt;span style=&quot;caret-color: rgb(51, 51, 51); color: rgb(51, 51, 51); font-family: &amp;quot;Open Sans&amp;quot;, &amp;quot;Clear Sans&amp;quot;, &amp;quot;Helvetica Neue&amp;quot;, Helvetica, Arial, &amp;quot;Segoe UI Emoji&amp;quot;, sans-serif; font-size: 16px; orphans: 4; text-align: left; text-size-adjust: auto; background-color: rgb(255, 255, 255);&quot;&gt;小滴课堂后端平台&lt;/span&gt;" style="shape=umlLifeline;perimeter=lifelinePerimeter;whiteSpace=wrap;html=1;container=1;collapsible=0;recursiveResize=0;outlineConnect=0;" vertex="1" parent="1">
          <mxGeometry x="280" y="130" width="100" height="450" as="geometry" />
        </mxCell>
        <mxCell id="-FQO2a4cCp6h9veF90y7-14" value="" style="html=1;points=[];perimeter=orthogonalPerimeter;fillColor=#d5e8d4;strokeColor=#82b366;" vertex="1" parent="-FQO2a4cCp6h9veF90y7-3">
          <mxGeometry x="50" y="150" width="10" height="20" as="geometry" />
        </mxCell>
        <mxCell id="-FQO2a4cCp6h9veF90y7-15" value="查询指定视频的url" style="edgeStyle=orthogonalEdgeStyle;html=1;align=left;spacingLeft=2;endArrow=block;rounded=0;" edge="1" parent="-FQO2a4cCp6h9veF90y7-3">
          <mxGeometry relative="1" as="geometry">
            <mxPoint x="55" y="120" as="sourcePoint" />
            <Array as="points">
              <mxPoint x="90" y="120" />
              <mxPoint x="90" y="160" />
              <mxPoint x="60" y="160" />
            </Array>
            <mxPoint x="60" y="160" as="targetPoint" />
          </mxGeometry>
        </mxCell>
        <mxCell id="-FQO2a4cCp6h9veF90y7-28" value="" style="html=1;points=[];perimeter=orthogonalPerimeter;fillColor=#d5e8d4;strokeColor=#82b366;" vertex="1" parent="-FQO2a4cCp6h9veF90y7-3">
          <mxGeometry x="45" y="80" width="10" height="240" as="geometry" />
        </mxCell>
        <mxCell id="-FQO2a4cCp6h9veF90y7-4" value="&lt;span style=&quot;caret-color: rgb(51, 51, 51); color: rgb(51, 51, 51); font-family: &amp;quot;Open Sans&amp;quot;, &amp;quot;Clear Sans&amp;quot;, &amp;quot;Helvetica Neue&amp;quot;, Helvetica, Arial, &amp;quot;Segoe UI Emoji&amp;quot;, sans-serif; font-size: 16px; orphans: 4; text-align: left; text-size-adjust: auto; background-color: rgb(255, 255, 255);&quot;&gt;阿里云VOD&lt;/span&gt;" style="shape=umlLifeline;perimeter=lifelinePerimeter;whiteSpace=wrap;html=1;container=1;collapsible=0;recursiveResize=0;outlineConnect=0;" vertex="1" parent="1">
          <mxGeometry x="590" y="130" width="100" height="450" as="geometry" />
        </mxCell>
        <mxCell id="-FQO2a4cCp6h9veF90y7-24" value="返回播放地址" style="html=1;verticalAlign=bottom;endArrow=open;dashed=1;endSize=8;rounded=0;" edge="1" parent="-FQO2a4cCp6h9veF90y7-4">
          <mxGeometry relative="1" as="geometry">
            <mxPoint x="50" y="270" as="sourcePoint" />
            <mxPoint x="-260" y="270" as="targetPoint" />
          </mxGeometry>
        </mxCell>
        <mxCell id="-FQO2a4cCp6h9veF90y7-29" value="" style="html=1;points=[];perimeter=orthogonalPerimeter;fillColor=#d5e8d4;strokeColor=#82b366;" vertex="1" parent="-FQO2a4cCp6h9veF90y7-4">
          <mxGeometry x="45" y="170" width="10" height="120" as="geometry" />
        </mxCell>
        <mxCell id="-FQO2a4cCp6h9veF90y7-5" value="&lt;span style=&quot;caret-color: rgb(51, 51, 51); color: rgb(51, 51, 51); font-family: &amp;quot;Open Sans&amp;quot;, &amp;quot;Clear Sans&amp;quot;, &amp;quot;Helvetica Neue&amp;quot;, Helvetica, Arial, &amp;quot;Segoe UI Emoji&amp;quot;, sans-serif; font-size: 16px; font-style: normal; font-variant-caps: normal; font-weight: normal; letter-spacing: normal; orphans: 4; text-align: left; text-indent: 0px; text-transform: none; word-spacing: 0px; text-size-adjust: auto; -webkit-text-stroke-width: 0px; background-color: rgb(255, 255, 255); text-decoration: none; float: none; display: inline !important;&quot;&gt;前端播放器&lt;/span&gt;" style="shape=umlLifeline;perimeter=lifelinePerimeter;whiteSpace=wrap;html=1;container=1;collapsible=0;recursiveResize=0;outlineConnect=0;" vertex="1" parent="1">
          <mxGeometry x="110" y="130" width="100" height="520" as="geometry" />
        </mxCell>
        <mxCell id="-FQO2a4cCp6h9veF90y7-26" value="webSDK自动播放" style="edgeStyle=orthogonalEdgeStyle;html=1;align=left;spacingLeft=2;endArrow=block;rounded=0;startArrow=none;" edge="1" parent="-FQO2a4cCp6h9veF90y7-5" source="-FQO2a4cCp6h9veF90y7-25">
          <mxGeometry relative="1" as="geometry">
            <mxPoint x="55" y="340" as="sourcePoint" />
            <Array as="points">
              <mxPoint x="55" y="350" />
              <mxPoint x="85" y="350" />
              <mxPoint x="85" y="380" />
            </Array>
            <mxPoint x="60" y="380" as="targetPoint" />
          </mxGeometry>
        </mxCell>
        <mxCell id="-FQO2a4cCp6h9veF90y7-25" value="" style="html=1;points=[];perimeter=orthogonalPerimeter;fillColor=#d5e8d4;strokeColor=#82b366;" vertex="1" parent="-FQO2a4cCp6h9veF90y7-5">
          <mxGeometry x="50" y="340" width="10" height="60" as="geometry" />
        </mxCell>
        <mxCell id="-FQO2a4cCp6h9veF90y7-23" value="&lt;span style=&quot;caret-color: rgb(51, 51, 51); color: rgb(51, 51, 51); font-family: &amp;quot;Open Sans&amp;quot;, &amp;quot;Clear Sans&amp;quot;, &amp;quot;Helvetica Neue&amp;quot;, Helvetica, Arial, &amp;quot;Segoe UI Emoji&amp;quot;, sans-serif; font-size: 16px; orphans: 4; text-align: left; text-size-adjust: auto;&quot;&gt;请求阿里云vod获取播放地址&lt;/span&gt;" style="html=1;verticalAlign=bottom;endArrow=block;rounded=0;" edge="1" parent="1">
          <mxGeometry x="0.2924" width="80" relative="1" as="geometry">
            <mxPoint x="330" y="330" as="sourcePoint" />
            <mxPoint x="639.5" y="330" as="targetPoint" />
            <mxPoint as="offset" />
          </mxGeometry>
        </mxCell>
        <mxCell id="-FQO2a4cCp6h9veF90y7-17" value="将视频播放地址返回给前端" style="html=1;verticalAlign=bottom;endArrow=open;dashed=1;endSize=8;rounded=0;startArrow=none;" edge="1" parent="1" source="-FQO2a4cCp6h9veF90y7-30">
          <mxGeometry relative="1" as="geometry">
            <mxPoint x="320" y="440" as="sourcePoint" />
            <mxPoint x="159.5" y="440" as="targetPoint" />
          </mxGeometry>
        </mxCell>
        <mxCell id="-FQO2a4cCp6h9veF90y7-30" value="" style="html=1;points=[];perimeter=orthogonalPerimeter;fillColor=#d5e8d4;strokeColor=#82b366;" vertex="1" parent="1">
          <mxGeometry x="155" y="400" width="10" height="200" as="geometry" />
        </mxCell>
        <mxCell id="-FQO2a4cCp6h9veF90y7-32" value="" style="html=1;verticalAlign=bottom;endArrow=none;dashed=1;endSize=8;rounded=0;" edge="1" parent="1" target="-FQO2a4cCp6h9veF90y7-30">
          <mxGeometry relative="1" as="geometry">
            <mxPoint x="320" y="440" as="sourcePoint" />
            <mxPoint x="159.5" y="440" as="targetPoint" />
          </mxGeometry>
        </mxCell>
      </root>
    </mxGraphModel>
  </diagram>
  <diagram id="3i7hQrNHva1dEEoX9wXs" name="讲师上传视频">
    <mxGraphModel dx="2013" dy="714" grid="1" gridSize="10" guides="1" tooltips="1" connect="1" arrows="1" fold="1" page="1" pageScale="1" pageWidth="827" pageHeight="1169" math="0" shadow="0">
      <root>
        <mxCell id="0" />
        <mxCell id="1" parent="0" />
        <mxCell id="apS-R8JsM1J65tj5F8J4-1" value="讲师录制视频" style="rounded=0;whiteSpace=wrap;html=1;fontSize=12;" vertex="1" parent="1">
          <mxGeometry x="-50" y="30" width="120" height="50" as="geometry" />
        </mxCell>
        <mxCell id="apS-R8JsM1J65tj5F8J4-2" value="&lt;span style=&quot;caret-color: rgb(51, 51, 51); color: rgb(51, 51, 51); font-family: &amp;quot;Open Sans&amp;quot;, &amp;quot;Clear Sans&amp;quot;, &amp;quot;Helvetica Neue&amp;quot;, Helvetica, Arial, &amp;quot;Segoe UI Emoji&amp;quot;, sans-serif; font-size: 16px; orphans: 4; text-align: left; text-size-adjust: auto; background-color: rgb(255, 255, 255);&quot;&gt;讲师&lt;/span&gt;" style="shape=umlLifeline;perimeter=lifelinePerimeter;whiteSpace=wrap;html=1;container=1;collapsible=0;recursiveResize=0;outlineConnect=0;" vertex="1" parent="1">
          <mxGeometry x="20" y="160" width="100" height="430" as="geometry" />
        </mxCell>
        <mxCell id="apS-R8JsM1J65tj5F8J4-8" value="" style="html=1;points=[];perimeter=orthogonalPerimeter;fillColor=#d5e8d4;strokeColor=#82b366;" vertex="1" parent="apS-R8JsM1J65tj5F8J4-2">
          <mxGeometry x="50" y="87" width="10" height="40" as="geometry" />
        </mxCell>
        <mxCell id="apS-R8JsM1J65tj5F8J4-9" value="录制视频" style="edgeStyle=orthogonalEdgeStyle;html=1;align=left;spacingLeft=2;endArrow=block;rounded=0;entryX=1;entryY=0;" edge="1" parent="apS-R8JsM1J65tj5F8J4-2">
          <mxGeometry relative="1" as="geometry">
            <mxPoint x="55" y="97" as="sourcePoint" />
            <Array as="points">
              <mxPoint x="85" y="97" />
            </Array>
            <mxPoint x="60" y="117" as="targetPoint" />
          </mxGeometry>
        </mxCell>
        <mxCell id="apS-R8JsM1J65tj5F8J4-10" value="" style="html=1;points=[];perimeter=orthogonalPerimeter;fillColor=#d5e8d4;strokeColor=#82b366;" vertex="1" parent="apS-R8JsM1J65tj5F8J4-2">
          <mxGeometry x="45" y="67" width="10" height="303" as="geometry" />
        </mxCell>
        <mxCell id="apS-R8JsM1J65tj5F8J4-7" value="上传视频" style="html=1;verticalAlign=bottom;endArrow=block;rounded=0;" edge="1" parent="apS-R8JsM1J65tj5F8J4-2" target="apS-R8JsM1J65tj5F8J4-4">
          <mxGeometry width="80" relative="1" as="geometry">
            <mxPoint x="55" y="160" as="sourcePoint" />
            <mxPoint x="210" y="160" as="targetPoint" />
          </mxGeometry>
        </mxCell>
        <mxCell id="apS-R8JsM1J65tj5F8J4-4" value="&lt;span style=&quot;caret-color: rgb(51, 51, 51); color: rgb(51, 51, 51); font-family: &amp;quot;Open Sans&amp;quot;, &amp;quot;Clear Sans&amp;quot;, &amp;quot;Helvetica Neue&amp;quot;, Helvetica, Arial, &amp;quot;Segoe UI Emoji&amp;quot;, sans-serif; font-size: 16px; orphans: 4; text-align: left; text-size-adjust: auto; background-color: rgb(255, 255, 255);&quot;&gt;小滴课堂运营平台&lt;/span&gt;" style="shape=umlLifeline;perimeter=lifelinePerimeter;whiteSpace=wrap;html=1;container=1;collapsible=0;recursiveResize=0;outlineConnect=0;" vertex="1" parent="1">
          <mxGeometry x="200" y="160" width="100" height="430" as="geometry" />
        </mxCell>
        <mxCell id="apS-R8JsM1J65tj5F8J4-11" value="" style="html=1;points=[];perimeter=orthogonalPerimeter;fillColor=#d5e8d4;strokeColor=#82b366;" vertex="1" parent="apS-R8JsM1J65tj5F8J4-4">
          <mxGeometry x="45" y="140" width="10" height="210" as="geometry" />
        </mxCell>
        <mxCell id="apS-R8JsM1J65tj5F8J4-12" value="" style="html=1;points=[];perimeter=orthogonalPerimeter;fillColor=#d5e8d4;strokeColor=#82b366;" vertex="1" parent="apS-R8JsM1J65tj5F8J4-4">
          <mxGeometry x="55" y="229" width="10" height="40" as="geometry" />
        </mxCell>
        <mxCell id="apS-R8JsM1J65tj5F8J4-13" value="处理数据，组装数据" style="edgeStyle=orthogonalEdgeStyle;html=1;align=left;spacingLeft=2;endArrow=block;rounded=0;entryX=1;entryY=0;" edge="1" parent="apS-R8JsM1J65tj5F8J4-4">
          <mxGeometry relative="1" as="geometry">
            <mxPoint x="70" y="238" as="sourcePoint" />
            <Array as="points">
              <mxPoint x="90" y="238" />
            </Array>
            <mxPoint x="65" y="258" as="targetPoint" />
          </mxGeometry>
        </mxCell>
        <mxCell id="apS-R8JsM1J65tj5F8J4-14" value="上传视频到vod" style="html=1;verticalAlign=bottom;endArrow=block;rounded=0;" edge="1" parent="apS-R8JsM1J65tj5F8J4-4" target="apS-R8JsM1J65tj5F8J4-6">
          <mxGeometry width="80" relative="1" as="geometry">
            <mxPoint x="55" y="180" as="sourcePoint" />
            <mxPoint x="135" y="180" as="targetPoint" />
          </mxGeometry>
        </mxCell>
        <mxCell id="apS-R8JsM1J65tj5F8J4-5" value="&lt;span style=&quot;caret-color: rgb(51, 51, 51); color: rgb(51, 51, 51); font-family: &amp;quot;Open Sans&amp;quot;, &amp;quot;Clear Sans&amp;quot;, &amp;quot;Helvetica Neue&amp;quot;, Helvetica, Arial, &amp;quot;Segoe UI Emoji&amp;quot;, sans-serif; font-size: 16px; orphans: 4; text-align: left; text-size-adjust: auto; background-color: rgb(255, 255, 255);&quot;&gt;数据库&lt;/span&gt;" style="shape=umlLifeline;perimeter=lifelinePerimeter;whiteSpace=wrap;html=1;container=1;collapsible=0;recursiveResize=0;outlineConnect=0;" vertex="1" parent="1">
          <mxGeometry x="400" y="160" width="100" height="450" as="geometry" />
        </mxCell>
        <mxCell id="apS-R8JsM1J65tj5F8J4-15" value="返回视频url" style="html=1;verticalAlign=bottom;endArrow=open;dashed=1;endSize=8;rounded=0;" edge="1" parent="apS-R8JsM1J65tj5F8J4-5">
          <mxGeometry relative="1" as="geometry">
            <mxPoint x="249.5" y="215" as="sourcePoint" />
            <mxPoint x="-140" y="215" as="targetPoint" />
          </mxGeometry>
        </mxCell>
        <mxCell id="apS-R8JsM1J65tj5F8J4-17" value="保存成功" style="html=1;verticalAlign=bottom;endArrow=open;dashed=1;endSize=8;rounded=0;" edge="1" parent="apS-R8JsM1J65tj5F8J4-5">
          <mxGeometry relative="1" as="geometry">
            <mxPoint x="40" y="334" as="sourcePoint" />
            <mxPoint x="-130" y="334" as="targetPoint" />
          </mxGeometry>
        </mxCell>
        <mxCell id="apS-R8JsM1J65tj5F8J4-20" value="" style="html=1;points=[];perimeter=orthogonalPerimeter;fillColor=#d5e8d4;strokeColor=#82b366;" vertex="1" parent="apS-R8JsM1J65tj5F8J4-5">
          <mxGeometry x="45" y="280" width="10" height="80" as="geometry" />
        </mxCell>
        <mxCell id="apS-R8JsM1J65tj5F8J4-6" value="&lt;span style=&quot;caret-color: rgb(51, 51, 51); color: rgb(51, 51, 51); font-family: &amp;quot;Open Sans&amp;quot;, &amp;quot;Clear Sans&amp;quot;, &amp;quot;Helvetica Neue&amp;quot;, Helvetica, Arial, &amp;quot;Segoe UI Emoji&amp;quot;, sans-serif; font-size: 16px; orphans: 4; text-align: left; text-size-adjust: auto; background-color: rgb(255, 255, 255);&quot;&gt;阿里云VOD&lt;/span&gt;" style="shape=umlLifeline;perimeter=lifelinePerimeter;whiteSpace=wrap;html=1;container=1;collapsible=0;recursiveResize=0;outlineConnect=0;" vertex="1" parent="1">
          <mxGeometry x="600" y="160" width="100" height="300" as="geometry" />
        </mxCell>
        <mxCell id="apS-R8JsM1J65tj5F8J4-25" value="" style="html=1;points=[];perimeter=orthogonalPerimeter;fillColor=#d5e8d4;strokeColor=#82b366;" vertex="1" parent="apS-R8JsM1J65tj5F8J4-6">
          <mxGeometry x="45" y="159" width="10" height="80" as="geometry" />
        </mxCell>
        <mxCell id="apS-R8JsM1J65tj5F8J4-16" value="存储视频信息&amp;amp;url" style="html=1;verticalAlign=bottom;endArrow=block;rounded=0;" edge="1" parent="1">
          <mxGeometry width="80" relative="1" as="geometry">
            <mxPoint x="255" y="458" as="sourcePoint" />
            <mxPoint x="449.5" y="458" as="targetPoint" />
          </mxGeometry>
        </mxCell>
        <mxCell id="apS-R8JsM1J65tj5F8J4-19" value="上传成功" style="html=1;verticalAlign=bottom;endArrow=open;dashed=1;endSize=8;rounded=0;" edge="1" parent="1">
          <mxGeometry relative="1" as="geometry">
            <mxPoint x="240" y="512" as="sourcePoint" />
            <mxPoint x="80" y="512" as="targetPoint" />
          </mxGeometry>
        </mxCell>
      </root>
    </mxGraphModel>
  </diagram>
</mxfile>
